<?xml version="1.0" standalone="no"?>
<!DOCTYPE svg PUBLIC "-//W3C//DTD SVG 20010904//EN"
 "http://www.w3.org/TR/2001/REC-SVG-20010904/DTD/svg10.dtd">
<svg version="1.0" xmlns="http://www.w3.org/2000/svg"
 width="300.000000pt" height="297.000000pt" viewBox="0 0 300.000000 297.000000"
 preserveAspectRatio="xMidYMid meet">
<metadata>
Created by potrace 1.10, written by Peter Selinger 2001-2011
</metadata>
<g transform="translate(0.000000,297.000000) scale(0.100000,-0.100000)"
fill="#000000" stroke="none">
<path d="M1245 2941 c-136 -30 -196 -50 -320 -111 -384 -186 -651 -529 -742
-953 -14 -63 -18 -128 -18 -277 0 -179 3 -204 27 -302 15 -60 41 -143 58 -185
l30 -78 -43 -35 c-110 -91 -246 -234 -233 -247 3 -3 48 36 99 88 87 88 167
160 187 167 5 2 7 9 4 16 -10 27 263 200 301 190 15 -4 24 0 28 10 6 15 66 49
117 66 86 30 183 69 173 69 -16 1 -181 -58 -225 -80 -39 -20 -63 -25 -54 -11
6 10 -21 91 -37 111 -9 12 -9 13 0 7 18 -10 16 5 -3 32 -8 12 -12 27 -8 34 5
7 2 8 -7 3 -10 -6 -11 -5 -3 4 8 9 22 6 60 -13 58 -30 100 -38 274 -51 51 -3
70 -2 60 5 -11 7 -7 10 18 10 28 0 35 5 47 33 l14 32 1 -27 c0 -22 5 -28 23
-28 18 0 26 11 45 63 42 113 106 214 179 283 34 33 42 54 21 55 -12 0 73 46
138 73 l31 14 -19 -36 c-23 -45 -23 -76 1 -127 27 -58 55 -83 134 -121 79 -38
134 -51 148 -37 6 6 -21 23 -73 45 -105 46 -140 84 -145 160 -5 65 19 108 74
136 50 26 203 43 394 44 148 1 150 2 59 8 -101 8 -323 -4 -397 -20 -101 -23
-143 -69 -143 -155 0 -39 7 -61 28 -94 26 -40 59 -61 172 -109 18 -8 20 -11 7
-11 -24 -1 -123 40 -174 72 -79 50 -107 151 -63 222 12 20 20 38 18 41 -3 2
-54 -19 -114 -47 -83 -40 -123 -66 -173 -113 -83 -79 -155 -190 -181 -277
l-21 -69 -117 0 c-117 1 -220 16 -257 38 -17 11 -16 11 10 5 46 -12 145 -8
189 6 101 35 165 141 150 249 -4 31 -8 61 -9 66 0 5 55 24 123 42 146 40 225
79 433 215 252 164 414 233 616 260 l87 11 34 -38 c19 -22 54 -68 78 -103 l43
-64 -24 -29 c-37 -43 -8 -98 51 -98 31 0 33 -3 53 -63 66 -196 66 -410 1 -621
-16 -52 -25 -66 -38 -64 -21 4 -20 19 11 133 16 58 21 92 15 96 -7 4 -6 8 2
11 16 5 21 166 9 266 -11 89 -57 238 -70 225 -5 -5 -5 -22 1 -42 5 -19 7 -38
4 -43 -3 -5 0 -7 6 -6 8 2 14 -14 17 -42 2 -25 6 -52 10 -60 11 -27 19 -250 9
-250 -6 0 -5 -5 2 -12 28 -28 8 -24 -45 8 -31 19 -81 43 -111 54 -59 22 -195
44 -233 38 -13 -2 3 -7 36 -11 85 -10 155 -23 190 -37 24 -9 27 -13 15 -21
-11 -8 -10 -9 8 -4 26 7 65 -3 57 -15 -3 -4 13 -15 35 -24 22 -9 40 -20 40
-25 0 -6 -24 1 -52 14 -29 13 -69 26 -88 29 -29 4 -28 3 10 -9 64 -21 140 -57
140 -67 0 -5 -7 -11 -15 -14 -11 -5 -12 -11 -4 -25 7 -14 6 -19 -2 -19 -6 0
-9 -7 -5 -15 3 -8 2 -15 -3 -15 -9 0 -26 -63 -24 -87 0 -9 -4 -10 -17 -3 -34
18 -35 10 -2 -11 17 -12 32 -26 32 -31 0 -6 11 -8 24 -4 14 3 28 2 31 -4 3 -5
12 -10 18 -10 8 0 7 4 -2 9 -12 8 -11 23 11 98 38 130 49 203 47 305 -3 123
-42 326 -71 365 -6 8 -2 16 13 23 35 19 109 91 109 107 0 22 25 26 63 9 53
-22 71 -55 63 -119 -6 -52 -6 -52 10 -23 20 37 20 90 0 121 -9 13 -34 30 -58
37 -28 8 -46 21 -57 42 -33 61 -81 104 -137 123 -30 10 -53 22 -51 28 1 5 6 9
10 7 5 -1 22 8 37 22 16 13 35 26 42 29 16 5 1 35 -25 51 -13 8 -20 6 -31 -9
-12 -17 -17 -18 -28 -7 -7 7 -8 13 -3 12 22 -5 29 1 15 10 -13 8 -12 10 3 10
24 0 21 22 -6 48 -25 23 -47 29 -47 12 0 -15 -78 -83 -111 -98 -27 -11 -29
-10 -29 8 0 31 29 82 42 74 7 -5 9 2 4 21 -4 16 -2 41 5 57 10 25 9 32 -11 53
-26 27 -60 33 -60 11 0 -15 -21 -26 -52 -26 -11 0 -22 -8 -25 -20 -3 -11 -20
-24 -40 -31 -22 -7 -31 -15 -25 -21 13 -13 83 22 80 40 -2 8 3 17 10 19 6 3
12 0 12 -7 0 -7 11 -4 30 7 17 9 30 21 30 26 0 4 8 3 19 -2 22 -12 37 -43 17
-35 -9 3 -16 -5 -21 -23 -4 -17 -2 -29 4 -31 6 -2 11 -11 11 -19 0 -9 -6 -13
-14 -10 -16 6 -40 -49 -34 -79 2 -9 -3 -19 -11 -22 -8 -2 -11 0 -8 6 8 11 -17
35 -26 25 -4 -3 -7 1 -7 11 0 9 5 14 10 11 6 -3 15 6 20 20 14 36 13 38 -14
31 -20 -5 -23 -3 -18 19 5 28 -5 32 -33 11 -16 -11 -17 -18 -8 -37 10 -21 12
-21 12 -5 1 18 2 18 21 1 15 -14 17 -21 8 -32 -8 -10 -8 -19 2 -37 16 -31 49
-45 86 -38 31 6 131 86 136 109 2 11 10 8 27 -11 17 -18 20 -26 10 -26 -12 0
-59 -98 -59 -123 0 -13 82 57 89 76 6 17 8 17 25 -2 17 -19 18 -21 2 -21 -24
0 -67 -30 -59 -43 3 -5 1 -7 -4 -4 -6 4 -16 1 -22 -7 -14 -16 -61 -18 -61 -2
1 6 11 36 25 66 13 30 22 57 19 59 -6 7 -34 -21 -29 -29 3 -4 -2 -13 -10 -20
-8 -7 -13 -16 -10 -20 2 -4 -5 -7 -18 -6 -14 1 -23 -6 -25 -19 -3 -16 -1 -18
9 -7 19 17 28 15 26 -8 -1 -18 -8 -19 -87 -19 -195 3 -412 -68 -640 -208 -36
-22 -114 -72 -175 -110 -132 -84 -227 -133 -315 -161 -120 -39 -148 -35 -208
29 -38 41 -55 51 -90 56 -117 16 -82 -98 40 -127 70 -17 98 -47 98 -103 0
-147 -93 -229 -263 -233 -80 -1 -91 1 -115 22 -15 13 -22 24 -17 24 12 0 14
190 1 190 -5 0 -3 6 3 14 12 15 14 22 25 98 4 26 11 50 16 53 4 3 14 37 21 75
7 39 16 70 21 70 5 0 6 -5 2 -12 -4 -7 -3 -8 5 -4 6 4 9 11 6 16 -3 5 -1 11 5
15 5 3 17 23 26 43 10 20 24 45 32 55 8 9 12 17 9 17 -3 0 7 12 21 28 15 15
50 52 77 83 28 30 65 65 83 78 19 13 29 27 26 34 -4 7 -3 9 1 5 5 -5 27 3 49
16 23 13 60 34 84 46 32 17 40 25 30 31 -8 6 -1 9 22 9 19 0 48 7 64 15 16 9
31 13 33 11 8 -8 63 16 63 27 0 8 3 7 9 -1 5 -9 17 -11 37 -6 l29 8 -25 7
c-23 6 -22 7 8 8 18 1 31 -3 28 -8 -7 -10 45 -2 60 10 6 5 27 4 48 -2 20 -6
47 -7 59 -3 32 10 78 13 72 4 -3 -4 4 -10 15 -13 11 -3 18 -1 14 4 -3 5 7 9
23 8 25 0 26 -1 8 -9 -20 -9 -20 -9 0 -11 11 -1 32 -3 47 -4 15 -1 33 -7 40
-12 7 -6 25 -10 40 -9 14 1 24 -2 22 -6 -2 -3 16 -10 41 -13 29 -5 45 -12 45
-22 0 -8 4 -12 8 -9 5 3 25 -6 45 -19 20 -14 38 -25 41 -25 3 0 28 -16 55 -35
58 -42 89 -46 44 -6 -41 38 -152 102 -233 135 -227 93 -513 90 -739 -7 -133
-58 -331 -202 -314 -229 3 -6 1 -8 -5 -4 -32 19 -225 -304 -226 -379 -1 -18
-4 -31 -7 -29 -14 8 -34 -138 -33 -251 0 -124 12 -197 46 -299 15 -48 17 -61
6 -67 -23 -15 -27 -10 -48 58 -95 308 -49 619 131 884 168 248 464 414 769
433 85 5 247 -12 330 -35 111 -30 244 -97 343 -172 88 -68 120 -78 48 -16 -77
67 -125 103 -117 89 6 -13 5 -13 -6 0 -16 19 -141 80 -162 80 -9 0 -16 4 -16
8 0 11 -175 53 -259 62 -204 21 -438 -29 -623 -134 -38 -21 -68 -42 -68 -47 0
-5 -5 -9 -10 -9 -19 0 -160 -132 -208 -195 -154 -203 -231 -443 -219 -684 4
-93 21 -177 62 -317 6 -18 -2 -27 -52 -54 -32 -19 -92 -57 -134 -87 -65 -45
-78 -50 -82 -35 -3 9 -15 44 -27 77 -125 343 -102 747 61 1069 65 127 211 322
232 309 5 -3 7 -1 3 5 -3 6 28 41 70 79 199 179 437 289 717 328 142 20 149
23 57 23 -41 0 -111 -7 -155 -17z m-30 -431 c-3 -5 -12 -10 -18 -10 -7 0 -6 4
3 10 19 12 23 12 15 0z m1275 -134 c0 -2 -8 -10 -17 -17 -16 -13 -17 -12 -4 4
13 16 21 21 21 13z m-19 -101 c67 -33 109 -72 109 -99 0 -17 -12 -24 -68 -38
-37 -9 -78 -20 -91 -24 -16 -5 -22 -4 -17 4 3 6 1 14 -5 17 -5 4 -8 14 -4 23
3 9 3 13 -1 9 -4 -4 -26 20 -50 52 -24 33 -53 67 -66 76 -22 16 -20 17 58 12
61 -4 94 -12 135 -32z m136 -130 c-4 -8 -11 -15 -17 -15 -6 0 -6 7 2 20 14 22
24 19 15 -5z m-37 -27 c-1 -35 -97 -108 -142 -108 -69 0 -32 65 56 99 60 23
86 26 86 9z m-1715 -217 c38 -24 75 -59 75 -71 0 -30 -116 17 -129 52 -16 42
5 50 54 19z m118 -106 c-4 -12 -7 -12 -20 0 -8 8 -11 20 -8 25 10 16 35 -8 28
-25z m290 -51 c-73 -80 -126 -167 -153 -250 -28 -82 -52 -88 -46 -11 2 28 10
66 17 82 16 37 109 163 140 190 30 27 15 2 -36 -60 -51 -61 -120 -173 -112
-181 3 -3 15 14 28 38 28 55 82 130 138 191 24 26 41 47 37 47 -17 0 5 16 23
17 17 1 10 -11 -36 -63z"/>
<path d="M2335 2291 c-9 -15 22 -33 40 -24 14 8 12 11 -9 21 -14 6 -28 7 -31
3z m30 -19 c-3 -3 -11 0 -18 7 -9 10 -8 11 6 5 10 -3 15 -9 12 -12z"/>
<path d="M2427 2050 c8 -29 25 -37 21 -9 -1 12 -8 24 -15 26 -7 3 -9 -3 -6
-17z"/>
<path d="M1488 2953 c6 -2 18 -2 25 0 6 3 1 5 -13 5 -14 0 -19 -2 -12 -5z"/>
<path d="M1640 2946 c177 -25 248 -43 392 -99 45 -17 75 -34 71 -40 -3 -5 -1
-7 5 -3 13 8 106 -42 183 -98 291 -212 468 -481 544 -826 20 -88 29 -377 15
-460 -5 -30 -12 -71 -15 -90 -3 -19 -10 -48 -15 -65 -31 -97 -54 -163 -67
-189 l-15 -28 -21 20 c-41 36 -207 140 -207 129 0 -2 46 -34 103 -70 93 -60
152 -107 133 -107 -4 0 7 -12 26 -27 18 -15 70 -63 115 -107 83 -81 113 -104
113 -88 0 9 -170 176 -213 210 l-29 21 30 79 c73 187 97 340 89 557 -8 205
-43 353 -127 530 -204 429 -660 745 -1095 760 l-110 4 95 -13z"/>
<path d="M1457 2884 c-3 -3 -3 -21 0 -40 3 -20 1 -40 -7 -49 -10 -12 -10 -21
0 -45 9 -23 10 -33 1 -44 -9 -10 -6 -17 13 -30 27 -17 71 -21 80 -7 4 5 -3 7
-14 4 -11 -3 -20 0 -20 6 0 6 -12 11 -27 11 -21 0 -24 3 -15 12 14 14 16 78 3
78 -5 0 -12 -6 -14 -12 -3 -8 -6 -6 -6 5 -1 9 6 17 14 17 17 0 21 60 5 76 -6
6 15 8 63 6 39 -2 77 -8 82 -14 7 -6 5 -8 -4 -6 -7 2 -16 -3 -19 -11 -3 -9 0
-11 8 -6 9 6 11 4 5 -5 -7 -11 -12 -9 -23 8 -9 14 -25 22 -42 22 -24 0 -28 -4
-32 -35 -4 -31 -1 -35 19 -35 13 0 23 5 23 10 0 6 7 10 16 10 13 0 14 -3 4
-15 -6 -8 -9 -19 -5 -25 3 -5 2 -10 -4 -10 -5 0 -13 5 -16 10 -3 6 -15 10 -26
10 -28 0 -28 -75 1 -83 16 -4 18 -2 11 12 -10 18 0 43 15 40 20 -5 44 15 44
36 0 13 4 27 10 30 5 3 14 15 20 25 18 33 -12 50 -89 50 -37 0 -70 -3 -74 -6z
m107 -53 c3 -5 -1 -12 -10 -15 -20 -8 -29 -1 -19 13 8 13 22 14 29 2z"/>
<path d="M1722 2866 c-5 -6 -13 -21 -16 -33 -4 -13 -14 -23 -21 -23 -17 0 -27
-16 -31 -46 -1 -12 -12 -36 -24 -52 -25 -34 -19 -56 12 -46 14 4 18 2 14 -5
-5 -7 4 -11 24 -11 27 0 30 3 24 24 -5 21 -3 24 15 19 12 -3 21 -13 21 -24 0
-11 7 -19 16 -19 10 0 14 -6 11 -14 -4 -10 0 -12 16 -8 12 2 27 9 34 14 8 6
15 2 23 -12 6 -12 14 -19 17 -16 3 3 12 -2 20 -10 9 -9 23 -12 35 -8 13 4 18
2 14 -4 -7 -11 51 -38 61 -28 3 3 -2 6 -13 6 -15 0 -16 2 -5 9 9 6 -2 14 -40
27 -30 11 -60 18 -66 18 -17 -2 -16 6 0 20 19 16 70 143 62 155 -9 15 5 13 35
-4 15 -9 19 -14 10 -15 -16 0 -74 -135 -65 -150 9 -15 55 -17 66 -4 6 8 16 11
21 8 6 -4 6 -9 -2 -14 -9 -6 -8 -15 4 -37 8 -17 13 -32 11 -34 -2 -3 9 -12 25
-21 27 -15 28 -15 25 3 -2 10 1 21 6 25 5 3 9 2 8 -3 -3 -19 2 -33 12 -33 6 0
8 9 4 20 -6 20 24 84 67 140 19 24 19 25 -2 42 -44 35 -50 30 -114 -99 -14
-29 -19 -29 -31 0 -10 22 -25 25 -56 13 -11 -5 -18 -1 -22 13 -3 12 -1 19 4
15 8 -5 13 13 12 44 -1 7 1 11 4 8 5 -5 43 61 43 75 0 4 -14 13 -31 22 -24 11
-35 12 -44 4 -7 -7 -11 -15 -9 -18 2 -4 -9 -37 -24 -75 -22 -56 -31 -68 -52
-70 -37 -3 -84 8 -70 16 7 4 9 17 5 33 -6 22 -10 25 -26 17 -14 -8 -21 -6 -30
12 l-11 21 -14 -24 c-17 -31 -17 -35 2 -53 14 -15 14 -16 0 -16 -9 0 -16 5
-16 11 0 7 -10 9 -25 7 -32 -7 -32 -2 6 33 25 23 30 34 25 55 -5 19 -3 24 8
22 8 -2 21 6 30 17 14 19 14 19 13 -7 -1 -14 -5 -24 -9 -21 -5 2 -8 -3 -8 -12
0 -9 4 -13 10 -10 6 3 7 -1 4 -10 -5 -11 -2 -14 10 -9 20 8 20 41 0 89 -14 35
-14 37 1 31 9 -3 23 -6 31 -6 9 0 12 -5 9 -11 -4 -6 -4 -26 -1 -44 5 -24 11
-32 21 -28 8 3 15 0 15 -6 0 -6 -7 -11 -15 -11 -15 0 -15 -12 2 -72 8 -31 26
-20 20 12 -5 20 -3 30 6 30 8 0 7 4 -3 10 -14 9 -7 14 13 11 10 -2 -10 36 -23
44 -6 3 -10 19 -10 34 0 16 -6 33 -12 38 -21 17 -57 22 -66 9z m407 -147 c17
-12 17 -13 -1 -31 -11 -11 -17 -26 -14 -34 3 -8 2 -12 -4 -9 -12 7 -33 -32
-24 -47 5 -7 3 -8 -6 -3 -10 6 -12 4 -7 -9 4 -10 3 -15 -3 -11 -6 3 -13 0 -16
-9 -3 -8 -12 -17 -20 -20 -9 -3 -12 -1 -9 4 3 6 2 10 -3 10 -6 0 -12 6 -15 14
-3 8 1 13 10 12 17 -1 82 98 83 127 0 20 4 21 29 6z"/>
<path d="M1190 2847 c-19 -10 -24 -19 -22 -39 2 -15 -5 -39 -14 -53 -14 -21
-15 -28 -5 -35 9 -5 11 -18 6 -39 -6 -30 -15 -38 -29 -24 -11 12 -46 10 -46
-2 0 -6 -6 -19 -13 -29 -12 -16 -15 -13 -40 32 -15 27 -27 59 -27 70 0 32 -21
42 -57 27 -35 -15 -41 -31 -20 -49 14 -11 58 -107 62 -135 3 -26 31 -36 61
-22 18 8 24 15 17 22 -11 11 -45 1 -37 -12 3 -5 -1 -6 -9 -3 -8 3 -14 11 -13
17 3 26 -57 147 -73 147 -11 1 -8 5 9 15 29 17 44 19 35 6 -7 -12 54 -151 67
-151 22 0 48 22 48 42 0 21 0 21 20 3 l21 -19 -32 -17 c-37 -18 -24 -35 14
-18 18 8 24 18 22 35 -1 13 2 22 8 21 26 -5 49 87 25 96 -9 3 -7 9 6 19 13 11
17 23 14 46 -4 31 9 42 52 42 12 0 13 -2 1 -9 -11 -7 -10 -14 5 -39 12 -22 21
-28 29 -22 16 13 27 0 14 -16 -12 -15 13 -59 42 -75 23 -12 25 3 4 25 -17 17
-20 41 -4 30 7 -4 6 2 -1 17 -13 24 -27 36 -45 39 -5 0 -17 15 -25 33 -17 36
-35 42 -70 24z m130 -97 c0 -5 -5 -10 -11 -10 -5 0 -7 5 -4 10 3 6 8 10 11 10
2 0 4 -4 4 -10z"/>
<path d="M1200 2764 c0 -24 4 -33 12 -28 6 4 8 3 4 -4 -10 -17 10 -23 24 -7 9
11 7 20 -11 44 -13 17 -24 31 -26 31 -2 0 -3 -16 -3 -36z"/>
<path d="M1190 2694 c0 -17 5 -35 11 -41 8 -8 3 -13 -20 -18 -17 -4 -31 -11
-31 -16 0 -6 4 -8 9 -4 5 3 12 1 16 -5 10 -16 28 -11 21 6 -5 12 -2 15 10 10
25 -10 35 3 19 27 -13 21 -12 22 16 23 19 1 28 -3 25 -11 -2 -6 1 -12 7 -13 7
0 22 -4 35 -7 13 -4 22 -3 22 3 0 6 10 8 23 6 22 -5 22 -4 -1 6 -13 5 -35 7
-49 4 -16 -4 -24 -3 -20 3 3 5 -1 20 -10 33 -15 22 -17 22 -29 5 -13 -18 -14
-18 -34 0 -20 18 -20 18 -20 -11z"/>
<path d="M770 2650 c-19 -14 -22 -23 -15 -34 98 -142 106 -156 87 -156 -9 0
-18 9 -86 83 -23 26 -47 47 -53 47 -5 0 -20 -10 -32 -21 l-23 -22 24 -22 c46
-43 98 -104 98 -114 0 -6 8 -15 19 -20 14 -8 24 -4 50 21 17 17 31 34 31 39 0
5 3 8 8 7 4 -1 29 8 55 22 32 16 46 29 42 38 -3 10 0 12 10 8 13 -4 14 -2 5
14 -6 11 -16 20 -23 20 -9 0 -8 3 1 9 9 5 3 8 -17 9 -26 1 -31 -3 -31 -24 0
-45 -20 -28 -80 69 -17 26 -33 47 -38 47 -4 0 -18 -9 -32 -20z m67 -71 c14
-21 29 -36 34 -33 5 3 6 -3 2 -12 -4 -12 -3 -15 5 -10 8 5 10 2 6 -8 -8 -20 6
-20 35 0 15 11 21 23 18 35 -6 22 1 24 26 5 12 -9 14 -16 7 -21 -5 -3 -8 -11
-5 -16 3 -5 -1 -6 -10 -3 -10 4 -15 2 -13 -7 2 -9 -4 -13 -16 -11 -10 2 -15
-1 -12 -6 3 -5 -2 -9 -12 -8 -9 0 -16 -4 -15 -10 1 -6 -5 -11 -13 -11 -7 0
-14 7 -14 15 0 20 -79 142 -92 142 -6 0 0 9 13 19 24 19 24 19 27 -1 2 -12 15
-38 29 -59z m-102 -41 c16 1 44 -29 39 -42 -3 -7 8 -23 22 -36 15 -14 24 -18
20 -10 -4 8 0 6 8 -4 9 -11 16 -14 16 -8 0 7 5 12 12 12 6 0 2 -10 -10 -23
-24 -25 -52 -31 -52 -12 0 7 -26 40 -58 73 -50 54 -56 64 -43 77 13 12 16 12
25 -7 6 -11 16 -20 21 -20z"/>
<path d="M740 2526 c0 -2 8 -10 18 -17 15 -13 16 -12 3 4 -13 16 -21 21 -21
13z"/>
<path d="M1275 2630 c-3 -5 -1 -10 4 -10 6 0 11 5 11 10 0 6 -2 10 -4 10 -3 0
-8 -4 -11 -10z"/>
<path d="M2237 2589 c-9 -6 -15 -14 -12 -20 3 -5 -1 -6 -9 -3 -12 5 -16 0 -16
-20 0 -26 22 -36 35 -16 7 11 25 70 22 70 -1 0 -10 -5 -20 -11z"/>
<path d="M591 2539 c-16 -25 -17 -35 -8 -50 7 -11 15 -19 19 -19 3 0 16 -16
28 -36 18 -28 20 -38 10 -47 -10 -9 -11 -9 -6 0 7 13 -28 28 -44 18 -6 -4 -9
-1 -8 5 2 7 -5 17 -14 23 -15 10 -23 7 -44 -15 -35 -35 -26 -53 35 -69 27 -7
48 -16 45 -21 -3 -4 3 -8 13 -8 10 0 34 -9 54 -19 38 -21 56 -15 78 27 10 19
9 23 -5 29 -22 8 -49 35 -50 48 -1 24 -25 66 -34 60 -5 -3 -1 -24 12 -50 12
-24 25 -42 29 -40 4 3 6 -3 5 -13 -1 -12 6 -16 24 -15 23 3 24 2 4 -6 -12 -5
-24 -17 -28 -27 -6 -15 -8 -15 -19 -2 -17 21 -154 71 -169 62 -6 -4 -1 8 12
27 20 27 25 30 28 16 3 -17 49 -42 110 -61 23 -8 23 -7 -8 54 -17 33 -39 68
-49 77 -16 13 -17 21 -9 44 11 33 33 40 23 8 -8 -24 13 -81 26 -73 5 3 9 12 9
20 0 8 -4 12 -10 9 -6 -3 -7 1 -4 9 3 9 2 16 -3 16 -5 0 -9 10 -9 21 1 35 -22
33 -43 -2z m139 -223 c0 -2 -8 -10 -17 -17 -16 -13 -17 -12 -4 4 13 16 21 21
21 13z"/>
<path d="M2088 2514 c-4 -3 2 -14 13 -25 25 -25 47 -14 23 12 -18 20 -27 23
-36 13z"/>
<path d="M2344 2408 l-19 -23 23 19 c21 18 27 26 19 26 -2 0 -12 -10 -23 -22z"/>
<path d="M1465 2306 c-60 -66 -86 -88 -125 -102 -27 -10 -47 -21 -44 -25 3 -5
-13 -17 -36 -29 -22 -11 -40 -22 -40 -24 0 -4 156 -66 165 -66 2 0 6 36 10 79
6 69 11 82 33 103 l27 23 -22 -26 c-20 -22 -23 -37 -23 -108 0 -59 3 -80 11
-75 8 5 10 29 5 75 -5 61 -4 70 17 96 50 60 118 163 109 163 -6 0 -45 -38 -87
-84z m-87 -166 c-2 -58 -6 -68 -22 -53 -4 4 -30 15 -59 23 l-52 16 33 17 c17
10 32 22 32 26 0 8 42 28 63 30 4 1 6 -26 5 -59z"/>
<path d="M1335 2131 c-3 -5 -1 -12 5 -16 5 -3 10 1 10 9 0 18 -6 21 -15 7z"/>
<path d="M2265 2370 c-3 -5 -5 -10 -3 -11 33 -8 38 -7 27 7 -14 17 -16 17 -24
4z"/>
<path d="M2187 2294 c-3 -6 12 -30 34 -53 21 -24 39 -47 39 -52 0 -4 12 -21
26 -36 14 -15 30 -37 34 -49 5 -11 15 -21 24 -21 21 0 22 0 -23 65 -55 80
-126 158 -134 146z"/>
<path d="M2118 2273 c6 -2 18 -2 25 0 6 3 1 5 -13 5 -14 0 -19 -2 -12 -5z"/>
<path d="M1233 2163 c-18 -9 -33 -20 -33 -25 0 -5 18 1 40 12 22 11 40 23 40
25 0 8 -13 5 -47 -12z"/>
<path d="M1183 2118 c0 -7 -4 -25 -8 -40 -5 -18 -3 -28 4 -28 9 0 16 28 12 53
-1 4 7 3 16 -2 10 -5 53 -21 96 -36 42 -15 80 -31 83 -37 9 -14 -22 -34 -95
-62 -35 -14 -81 -37 -102 -52 -44 -31 -68 -24 -45 12 11 15 16 45 15 86 0 68
-11 109 -22 91 -4 -7 -3 -14 3 -18 5 -3 10 -15 10 -26 0 -11 -4 -18 -9 -15 -5
3 -8 -9 -7 -27 2 -17 -4 -50 -11 -71 -11 -32 -11 -41 -1 -48 7 -4 9 -8 4 -8
-6 0 -5 -5 1 -11 8 -8 47 6 146 55 170 84 172 92 32 141 -44 16 -89 35 -101
42 -16 10 -21 10 -21 1z"/>
<path d="M2195 1961 l40 -7 -60 -31 c-77 -41 -66 -42 20 -2 72 34 73 50 0 47
l-40 -1 40 -6z"/>
<path d="M1730 1922 c-15 -12 -21 -25 -17 -35 9 -24 67 -57 86 -49 11 4 6 8
-18 13 -18 4 -40 14 -49 22 -13 14 -13 18 -1 33 13 15 14 15 19 -7 5 -20 13
-24 45 -26 l40 -1 -35 6 c-27 6 -35 12 -35 29 -1 32 -9 36 -35 15z"/>
<path d="M2221 1907 c-41 -11 -70 -22 -63 -25 6 -2 43 6 82 18 40 12 74 19 77
16 5 -5 -59 -85 -179 -225 -31 -36 -55 -67 -53 -70 2 -2 15 9 28 25 175 208
224 270 220 277 -6 10 -28 7 -112 -16z"/>
<path d="M702 1900 c0 -14 2 -19 5 -12 2 6 2 18 0 25 -3 6 -5 1 -5 -13z"/>
<path d="M2090 1875 c-7 -9 -8 -15 -2 -15 5 0 12 7 16 15 3 8 4 15 2 15 -2 0
-9 -7 -16 -15z"/>
<path d="M2210 1819 c0 -5 -4 -8 -8 -5 -5 3 -22 -9 -38 -27 -29 -31 -29 -32
-1 -8 41 36 33 10 -10 -30 -26 -25 -34 -29 -29 -14 4 11 -20 -6 -56 -40 -34
-33 -64 -61 -67 -62 -2 -2 -2 -5 0 -8 3 -2 28 19 57 47 29 28 55 48 58 45 9
-8 -84 -100 -115 -114 -24 -11 -24 -11 -4 -12 21 -1 37 14 166 156 51 56 68
83 52 83 -3 0 -5 -5 -5 -11z"/>
<path d="M908 1733 c7 -3 16 -2 19 1 4 3 -2 6 -13 5 -11 0 -14 -3 -6 -6z"/>
<path d="M1928 1623 c6 -2 18 -2 25 0 6 3 1 5 -13 5 -14 0 -19 -2 -12 -5z"/>
<path d="M2188 1623 c7 -3 16 -2 19 1 4 3 -2 6 -13 5 -11 0 -14 -3 -6 -6z"/>
<path d="M1843 1586 c-95 -17 -84 -24 15 -9 111 17 125 21 82 21 -19 0 -63 -6
-97 -12z"/>
<path d="M1738 1563 c7 -3 16 -2 19 1 4 3 -2 6 -13 5 -11 0 -14 -3 -6 -6z"/>
<path d="M1655 1550 c-17 -7 -16 -9 10 -9 17 0 37 4 45 9 12 8 10 10 -10 9
-14 0 -34 -4 -45 -9z"/>
<path d="M1920 1550 l-45 -7 42 -1 c23 -1 45 3 48 8 3 6 5 9 3 8 -2 0 -23 -4
-48 -8z"/>
<path d="M2008 1553 c12 -2 30 -2 40 0 9 3 -1 5 -23 4 -22 0 -30 -2 -17 -4z"/>
<path d="M2093 1553 c9 -2 23 -2 30 0 6 3 -1 5 -18 5 -16 0 -22 -2 -12 -5z"/>
<path d="M2141 1556 c2 -2 38 -6 79 -8 42 -3 64 -2 50 2 -25 8 -137 13 -129 6z"/>
<path d="M1848 1533 c7 -3 16 -2 19 1 4 3 -2 6 -13 5 -11 0 -14 -3 -6 -6z"/>
<path d="M2023 1532 c-6 -4 33 -7 87 -7 54 0 93 3 87 7 -7 4 -46 8 -87 8 -41
0 -80 -4 -87 -8z"/>
<path d="M1428 1523 c7 -3 16 -2 19 1 4 3 -2 6 -13 5 -11 0 -14 -3 -6 -6z"/>
<path d="M1440 1500 c-63 -16 -106 -29 -95 -29 11 0 54 8 95 19 41 11 85 20
98 20 12 0 22 5 22 10 0 6 -1 10 -2 9 -2 0 -55 -13 -118 -29z"/>
<path d="M1773 1523 c9 -2 25 -2 35 0 9 3 1 5 -18 5 -19 0 -27 -2 -17 -5z"/>
<path d="M1919 1526 c-2 -2 -29 -7 -59 -10 -72 -9 -284 -47 -289 -52 -8 -8 25
-4 126 15 57 11 129 23 160 27 32 3 78 10 103 14 l45 8 -41 1 c-22 0 -43 -1
-45 -3z"/>
<path d="M2233 1523 c9 -2 23 -2 30 0 6 3 -1 5 -18 5 -16 0 -22 -2 -12 -5z"/>
<path d="M1670 1510 c-17 -6 -9 -7 25 -3 28 3 52 7 54 9 8 7 -54 2 -79 -6z"/>
<path d="M1598 1493 c6 -2 18 -2 25 0 6 3 1 5 -13 5 -14 0 -19 -2 -12 -5z"/>
<path d="M1558 1483 c7 -3 16 -2 19 1 4 3 -2 6 -13 5 -11 0 -14 -3 -6 -6z"/>
<path d="M1508 1473 c6 -2 18 -2 25 0 6 3 1 5 -13 5 -14 0 -19 -2 -12 -5z"/>
<path d="M1168 1463 c7 -3 16 -2 19 1 4 3 -2 6 -13 5 -11 0 -14 -3 -6 -6z"/>
<path d="M1458 1463 c7 -3 16 -2 19 1 4 3 -2 6 -13 5 -11 0 -14 -3 -6 -6z"/>
<path d="M1348 1450 c-38 -3 -70 -9 -74 -12 -8 -9 129 4 146 13 8 5 11 8 5 7
-5 0 -40 -4 -77 -8z"/>
<path d="M1485 1449 c-35 -4 -17 -6 60 -7 112 0 130 4 40 10 -27 2 -72 0 -100
-3z"/>
<path d="M609 1431 c28 -22 118 -51 152 -50 13 0 -6 8 -42 18 -36 9 -78 25
-92 34 -35 23 -48 21 -18 -2z"/>
<path d="M828 1443 c7 -3 16 -2 19 1 4 3 -2 6 -13 5 -11 0 -14 -3 -6 -6z"/>
<path d="M963 1443 c9 -2 25 -2 35 0 9 3 1 5 -18 5 -19 0 -27 -2 -17 -5z"/>
<path d="M1188 1443 c7 -3 16 -2 19 1 4 3 -2 6 -13 5 -11 0 -14 -3 -6 -6z"/>
<path d="M1666 1442 c-3 -5 12 -9 32 -10 33 -2 82 -8 227 -27 34 -4 36 -4 12
4 -15 5 -69 14 -120 20 -50 6 -104 13 -119 16 -15 2 -29 1 -32 -3z"/>
<path d="M1140 1430 c14 -9 68 -15 59 -6 -3 3 -20 8 -39 11 -25 4 -31 3 -20
-5z"/>
<path d="M1216 1431 c-3 -4 6 -6 19 -3 14 2 25 6 25 8 0 8 -39 4 -44 -5z"/>
<path d="M1118 1413 c7 -3 16 -2 19 1 4 3 -2 6 -13 5 -11 0 -14 -3 -6 -6z"/>
<path d="M1040 1400 c-20 -6 -21 -8 -5 -8 11 0 29 3 40 8 25 11 -1 11 -35 0z"/>
<path d="M2000 1386 c19 -7 37 -12 39 -10 8 7 -6 14 -40 19 l-34 5 35 -14z"/>
<path d="M790 1378 c0 -3 34 -8 75 -10 41 -2 71 0 67 4 -9 9 -142 15 -142 6z"/>
<path d="M970 1380 c-23 -7 -23 -8 -3 -9 12 -1 25 4 28 9 3 6 5 10 3 9 -2 -1
-14 -5 -28 -9z"/>
<path d="M1315 1365 c-40 -21 -75 -64 -75 -94 0 -13 -9 -39 -21 -57 -20 -32
-20 -35 -3 -63 41 -70 149 -75 231 -11 26 20 26 20 39 1 8 -11 28 -22 45 -26
18 -4 34 -16 39 -30 5 -12 15 -25 22 -28 16 -6 78 18 78 30 0 5 10 9 23 11 13
1 41 8 64 16 40 14 42 14 65 -11 20 -22 29 -24 73 -20 28 3 57 8 65 11 10 4
22 -5 35 -24 20 -30 47 -38 75 -20 11 7 20 2 36 -17 14 -18 30 -26 55 -27 22
-1 40 -9 51 -22 13 -16 27 -21 53 -19 25 1 36 -3 40 -14 6 -21 56 -51 85 -51
12 0 31 -5 42 -11 16 -9 19 -8 13 2 -5 8 -4 10 3 5 7 -4 12 -15 12 -25 0 -10
22 -37 50 -60 45 -38 54 -42 92 -38 33 3 46 9 55 27 6 13 19 27 27 32 27 15
18 48 -24 90 -38 38 -41 39 -95 35 -45 -3 -53 -2 -44 9 22 27 6 58 -45 86
l-50 26 -39 -20 c-21 -10 -41 -17 -43 -15 -3 2 16 21 41 41 50 41 56 67 23 90
-29 21 -55 20 -67 -1 -8 -16 -11 -14 -22 10 -7 15 -18 28 -26 28 -7 1 -19 2
-25 2 -24 2 -73 -31 -101 -68 -31 -39 -58 -39 -33 0 15 22 14 25 -13 54 -34
36 -66 39 -98 9 -17 -16 -23 -18 -23 -6 0 16 -36 53 -60 60 -8 3 -35 -1 -59
-8 -42 -12 -46 -12 -68 10 -18 19 -35 24 -73 24 -30 1 -53 -5 -60 -13 -10 -12
-15 -11 -33 5 -25 23 -71 26 -109 6 -27 -14 -28 -14 -28 9 0 13 -11 37 -24 53
-22 25 -32 29 -83 31 -36 1 -69 -4 -88 -14z m150 -30 c15 -14 25 -36 25 -52 0
-39 -39 -112 -71 -136 -34 -25 -110 -33 -149 -17 -54 22 -52 92 3 98 l27 3
-18 -30 c-12 -22 -14 -33 -6 -41 9 -9 20 11 45 74 27 67 39 86 58 91 13 3 25
4 27 2 2 -2 -12 -41 -31 -87 -19 -46 -35 -85 -35 -86 0 -1 -10 -5 -22 -9 -19
-6 -20 -8 -6 -12 34 -9 72 21 101 76 29 58 35 109 15 129 -34 34 -118 -16
-118 -69 0 -32 -19 -39 -40 -14 -10 12 -10 21 -2 40 29 64 150 88 197 40z
m173 -67 c18 -18 15 -33 -14 -62 -17 -16 -38 -26 -55 -26 -19 0 -29 -5 -29
-15 0 -8 9 -15 20 -15 36 0 80 30 108 73 25 39 30 42 72 42 25 0 51 -4 58 -8
17 -11 15 -48 -4 -75 -29 -42 -6 -35 39 12 47 48 85 59 128 36 23 -13 26 -62
4 -80 -25 -21 -9 -23 24 -4 16 9 35 28 42 41 14 27 36 29 67 7 30 -21 28 -32
-15 -76 -37 -38 -35 -52 3 -23 24 18 40 19 25 1 -21 -25 -67 -39 -90 -26 -30
15 -26 33 16 74 20 19 34 39 30 43 -4 3 -22 -7 -40 -24 -41 -39 -61 -49 -120
-57 -39 -6 -53 -4 -68 10 -10 9 -19 23 -19 29 0 9 -16 7 -57 -6 -31 -11 -65
-17 -74 -14 -12 4 -23 -2 -35 -20 -11 -17 -25 -25 -46 -25 l-29 0 19 28 c35
51 35 53 -1 36 -26 -12 -42 -14 -63 -7 -40 13 -50 34 -34 73 23 55 106 90 138
58z m672 -88 c0 -4 -7 -10 -15 -14 -9 -3 -12 -12 -8 -21 4 -11 1 -15 -9 -13
-16 3 -114 -79 -105 -88 4 -4 18 1 31 10 35 22 46 20 17 -4 -29 -24 -89 -27
-98 -4 -4 10 10 32 41 63 26 26 43 50 40 54 -4 4 0 7 8 7 9 0 21 6 27 13 11
14 71 11 71 -3z m90 -25 c18 -21 5 -45 -25 -45 -14 0 -28 7 -31 15 -7 17 12
45 31 45 7 0 18 -7 25 -15z m-45 -65 c2 -3 -19 -24 -47 -45 -48 -37 -53 -59
-8 -35 12 6 24 9 27 7 11 -11 -58 -37 -82 -31 -38 9 -31 37 20 82 43 37 75 46
90 22z m98 -49 c16 -6 8 -14 -42 -45 -34 -20 -59 -41 -56 -46 8 -13 54 6 98
42 26 20 42 27 49 20 17 -17 4 -44 -30 -63 -48 -25 -52 -33 -14 -26 21 4 31 3
27 -3 -8 -13 -30 -13 -69 0 -17 5 -43 12 -57 15 -29 5 -43 29 -31 51 11 20 74
63 92 63 8 0 23 -4 33 -8z m197 -141 l39 -40 -33 -14 c-18 -7 -42 -17 -54 -20
-12 -4 -22 -12 -22 -17 0 -12 12 -11 44 1 14 5 26 6 26 1 0 -11 -25 -21 -54
-21 -27 0 -68 28 -61 41 4 5 -3 9 -13 9 -24 0 -45 23 -40 46 4 22 65 54 101
54 19 0 40 -12 67 -40z"/>
<path d="M1594 1262 c-18 -12 -56 -72 -45 -72 12 0 38 25 52 52 12 22 9 31 -7
20z"/>
<path d="M1734 1228 c-29 -32 -56 -79 -51 -85 14 -14 87 71 87 101 0 13 -17 5
-36 -16z"/>
<path d="M1905 1203 c-37 -38 -60 -83 -42 -83 25 0 96 93 79 104 -5 3 -22 -7
-37 -21z"/>
<path d="M2580 898 c-38 -11 -60 -25 -60 -39 0 -12 45 -1 89 21 41 20 23 31
-29 18z"/>
<path d="M2140 1346 c52 -18 119 -43 149 -54 30 -12 57 -20 59 -18 4 5 -143
63 -223 87 -97 30 -88 20 15 -15z"/>
<path d="M992 1207 c-17 -18 -32 -38 -32 -45 0 -7 -9 -3 -20 8 -11 11 -30 20
-42 20 -31 0 -89 -37 -95 -61 -6 -23 -21 -24 -44 -3 -17 15 -21 15 -50 -2 -19
-11 -37 -33 -45 -54 -7 -19 -13 -29 -13 -22 -1 7 -15 12 -35 12 -26 0 -41 -8
-64 -34 l-30 -34 -23 24 c-60 64 -198 -12 -216 -120 -6 -39 27 -86 61 -86 19
0 25 -7 30 -37 3 -21 12 -46 20 -56 13 -16 15 -15 46 13 24 22 30 35 25 51 -5
15 -1 28 14 43 12 11 28 30 36 41 14 19 16 19 26 3 20 -35 94 -13 135 41 7 9
20 12 34 8 30 -8 72 14 90 48 12 23 19 26 52 22 21 -2 38 0 38 4 0 5 5 9 11 9
6 0 24 14 40 31 16 17 29 26 29 20 0 -13 66 -15 75 -1 3 5 12 7 20 3 37 -14
111 81 86 110 -5 7 -11 26 -13 42 -3 29 -5 30 -58 33 -51 3 -58 0 -88 -31z
m122 -22 c-19 -55 -15 -95 6 -52 7 15 17 27 22 27 15 0 -22 -59 -48 -76 -18
-12 -28 -14 -36 -6 -8 8 -15 7 -25 -4 -21 -21 -51 -17 -58 7 -19 59 38 146 89
137 13 -3 31 -1 38 3 25 16 27 9 12 -36z m-186 -46 c3 -25 -19 -59 -39 -59 -5
0 -7 19 -3 43 5 38 4 40 -10 24 -23 -30 -31 -96 -13 -115 14 -13 19 -12 46 16
17 17 31 38 31 46 0 9 5 16 10 16 15 0 12 -14 -12 -50 -30 -44 -75 -63 -109
-46 -22 11 -25 9 -41 -26 -22 -48 -61 -69 -85 -45 -19 19 -10 35 10 19 13 -12
27 -7 27 9 0 4 -11 20 -24 34 l-24 25 -7 -47 c-5 -34 -16 -56 -40 -80 -54 -54
-105 -37 -105 37 0 51 41 102 79 98 21 -2 27 -9 29 -36 3 -25 -3 -39 -28 -64
-22 -21 -28 -34 -21 -41 17 -17 57 28 69 76 6 23 14 59 17 80 6 38 44 75 65
62 18 -11 11 -27 -10 -20 -30 10 -24 -14 14 -57 l33 -38 12 55 c15 67 60 118
100 113 20 -2 27 -9 29 -29z m-142 -55 c-3 -9 -6 -21 -6 -27 0 -8 -3 -8 -11 0
-13 13 -5 43 12 43 6 0 8 -7 5 -16z m-301 -89 c17 -16 25 -35 25 -57 0 -38
-30 -92 -59 -107 -15 -9 -18 -16 -12 -38 6 -22 4 -33 -12 -51 l-21 -23 -22
108 c-20 98 -20 110 -6 126 18 21 32 22 32 2 0 -7 5 -37 11 -65 9 -42 13 -49
25 -39 19 15 18 89 -2 117 -21 30 -58 28 -83 -4 -25 -32 -26 -55 -6 -94 13
-25 13 -29 -3 -35 -25 -9 -55 32 -47 64 13 56 85 121 132 121 13 0 35 -11 48
-25z"/>
<path d="M1048 1193 c-23 -27 -42 -93 -30 -105 9 -9 28 31 47 100 8 27 3 28
-17 5z"/>
<path d="M585 979 c-7 -43 0 -63 15 -39 12 19 13 80 1 80 -5 0 -12 -18 -16
-41z"/>
<path d="M1385 990 c-3 -5 -3 -10 2 -11 36 -3 114 0 138 5 l30 7 -30 -15 -30
-16 33 6 c31 6 33 4 27 -15 -9 -30 -1 -26 28 12 l25 33 -108 3 c-67 1 -111 -2
-115 -9z"/>
<path d="M1631 993 c4 -20 -2 -33 -15 -33 -7 0 -20 -7 -27 -16 -12 -15 -11
-16 11 -9 14 4 26 12 28 16 2 5 14 6 27 3 18 -4 26 0 35 17 13 24 15 23 -39 1
-9 -3 -12 -1 -7 6 3 6 2 14 -4 17 -6 4 -10 3 -9 -2z"/>
<path d="M1349 967 c-15 -32 -20 -33 -44 -7 -12 13 -29 20 -49 18 -30 -2 -31
-4 -28 -40 4 -35 7 -38 35 -38 l30 0 -20 23 c-38 42 -36 52 4 14 l41 -39 -17
-40 c-9 -22 -32 -58 -51 -80 l-35 -40 2 54 2 53 -13 -63 c-7 -34 -16 -65 -19
-68 -11 -11 -29 81 -32 159 -1 42 -4 79 -6 82 -3 2 -28 -3 -56 -11 -50 -15
-51 -16 -43 -43 15 -53 43 -102 66 -118 13 -8 24 -25 24 -37 -1 -19 -2 -19
-11 -3 -5 9 -17 17 -24 17 -8 0 -14 3 -13 8 3 16 -15 40 -27 36 -14 -6 -95 37
-114 60 -8 9 -2 15 26 25 33 12 38 12 50 -5 7 -10 13 -25 13 -35 0 -9 8 -23
17 -30 15 -12 16 -12 8 6 -4 11 -14 39 -22 62 l-15 42 -52 -19 c-28 -11 -65
-20 -82 -20 -17 0 -37 -7 -44 -15 -7 -8 -17 -12 -23 -8 -5 3 -7 1 -3 -5 3 -6
-13 -20 -39 -33 -25 -12 -43 -24 -41 -26 2 -2 21 5 42 16 49 26 49 26 82 -4
15 -14 50 -40 77 -58 28 -17 52 -34 55 -37 15 -17 166 -81 240 -102 135 -37
318 -47 450 -23 82 15 203 53 284 90 52 24 204 127 218 149 12 18 214 -96 283
-160 15 -14 55 -48 88 -76 33 -27 68 -60 78 -71 10 -12 18 -17 19 -11 0 18
-175 169 -265 228 -44 29 -108 67 -142 85 -38 19 -63 38 -63 47 0 12 -7 15
-27 11 -15 -3 -37 -1 -49 4 -26 9 -133 -28 -167 -58 -11 -10 -17 -12 -13 -5
10 17 5 16 -61 -14 -56 -24 -103 -59 -103 -75 0 -5 8 -5 18 -2 15 6 15 5 3
-11 -14 -16 -15 -16 -26 4 -11 20 -12 19 -27 -13 -14 -29 -20 -33 -46 -29 -19
2 -34 13 -43 30 -18 35 -39 57 -39 42 0 -6 -5 -8 -10 -5 -13 8 11 -48 25 -57
6 -5 5 -12 -3 -20 -9 -9 -19 -10 -41 -1 -26 9 -29 9 -24 -6 4 -14 3 -14 -10 1
-12 15 -16 16 -34 3 -35 -25 -48 18 -14 49 10 9 29 39 42 66 13 27 28 46 34
43 5 -3 5 0 -1 6 -24 26 -4 49 50 60 28 6 86 23 130 38 71 25 76 28 51 35 -18
4 -38 2 -55 -7 -35 -18 -179 -55 -222 -56 -18 -1 -25 -3 -16 -6 10 -2 15 -10
11 -19 -4 -10 0 -12 11 -8 42 16 -9 -108 -75 -184 l-29 -32 -6 25 c-3 14 -10
25 -15 25 -5 0 -6 -7 -2 -16 5 -14 -1 -15 -48 -8 -30 4 -63 8 -73 8 -29 1 110
126 172 155 51 24 66 41 37 41 -9 0 -12 6 -9 15 4 8 1 15 -5 15 -6 0 -11 -9
-11 -19 0 -11 -9 -22 -19 -26 -11 -3 -39 -21 -62 -40 -24 -19 -45 -33 -46 -31
-1 1 23 28 53 60 41 42 53 60 44 66 -17 11 -40 1 -34 -14 3 -7 -13 -31 -35
-55 -38 -41 -61 -79 -41 -66 22 14 8 -13 -20 -38 -16 -15 -30 -25 -30 -21 0 3
-7 -1 -15 -10 -9 -8 -23 -12 -31 -9 -13 5 -10 12 16 36 37 34 84 131 77 158
-3 11 0 16 8 13 7 -3 16 4 20 15 3 12 11 19 16 15 5 -3 7 -9 4 -14 -3 -4 5 -6
16 -3 21 6 21 7 4 20 -11 7 -22 18 -26 25 -5 8 -12 3 -20 -15z m-210 -102 c-1
-36 -6 -65 -10 -65 -12 0 -47 53 -54 82 -7 28 12 47 48 48 16 0 18 -8 16 -65z
m-175 -44 c255 -175 543 -221 836 -134 102 30 180 69 278 136 61 42 76 48 94
40 21 -9 18 -13 -42 -57 -368 -271 -850 -273 -1214 -5 -52 38 -65 53 -55 60
22 14 29 12 103 -40z m1100 32 c9 4 16 5 16 3 0 -7 -70 -48 -85 -50 -8 -1 -28
-15 -45 -31 -16 -16 -30 -25 -30 -21 0 5 -11 1 -25 -8 -14 -9 -25 -12 -25 -6
0 6 -9 2 -21 -9 -11 -10 -29 -21 -38 -24 -16 -4 -17 -1 -6 31 14 41 49 62 119
73 27 5 56 15 65 22 9 8 22 12 29 10 7 -3 12 -1 11 4 -3 19 2 27 10 14 5 -8
16 -11 25 -8z m-408 -165 c8 -16 12 -28 10 -28 -8 0 -56 74 -56 85 1 12 26
-20 46 -57z"/>
<path d="M1718 983 c6 -2 18 -2 25 0 6 3 1 5 -13 5 -14 0 -19 -2 -12 -5z"/>
<path d="M1188 963 c7 -3 16 -2 19 1 4 3 -2 6 -13 5 -11 0 -14 -3 -6 -6z"/>
<path d="M1852 933 c-12 -15 -22 -24 -22 -20 0 5 -11 -4 -25 -19 -45 -49 -28
-59 23 -13 26 24 58 52 72 61 l25 17 -26 0 c-16 1 -33 -9 -47 -26z"/>
<path d="M1945 940 c27 -12 43 -12 25 0 -8 5 -22 9 -30 9 -10 0 -8 -3 5 -9z"/>
<path d="M2003 923 c9 -2 15 -8 12 -13 -9 -14 14 -22 32 -11 16 8 15 11 -10
20 -16 6 -34 10 -40 10 -7 -1 -4 -3 6 -6z"/>
<path d="M1202 885 c0 -16 2 -22 5 -12 2 9 2 23 0 30 -3 6 -5 -1 -5 -18z"/>
<path d="M1755 850 c2 -14 -1 -38 -8 -55 l-13 -29 -27 39 c-35 51 -35 37 -1
-22 l27 -45 17 29 c28 44 32 67 15 89 -15 18 -15 18 -10 -6z"/>
<path d="M1185 840 c3 -5 8 -10 11 -10 2 0 4 5 4 10 0 6 -5 10 -11 10 -5 0 -7
-4 -4 -10z"/>
<path d="M1170 821 c0 -5 7 -12 16 -15 14 -5 15 -4 4 9 -14 17 -20 19 -20 6z"/>
<path d="M1439 813 c0 -10 -3 -39 -5 -65 -2 -26 0 -49 6 -53 10 -6 15 9 10 30
-1 6 -2 31 -1 58 1 26 -1 47 -4 47 -3 0 -5 -8 -6 -17z"/>
<path d="M1663 812 c0 -12 5 -22 9 -22 8 0 40 -57 36 -64 -2 -2 0 -8 5 -12 18
-18 4 25 -23 71 -20 35 -29 43 -27 27z"/>
<path d="M1471 794 c0 -11 3 -14 6 -6 3 7 2 16 -1 19 -3 4 -6 -2 -5 -13z"/>
<path d="M664 761 c-92 -60 -165 -120 -279 -230 -62 -58 -105 -108 -103 -116
2 -10 18 4 45 38 23 30 76 85 118 122 63 57 77 66 90 55 9 -7 14 -18 12 -24
-2 -5 7 -20 21 -33 23 -21 23 -43 -1 -43 -15 0 -225 -103 -251 -122 -15 -12
-16 -17 -6 -23 9 -5 11 -4 6 3 -5 8 1 12 14 12 13 0 19 4 14 11 -4 8 1 9 16 4
14 -4 20 -3 16 3 -7 12 54 43 68 35 5 -3 6 -1 3 4 -8 13 20 26 35 16 6 -3 8
-1 5 4 -5 9 39 33 59 33 1 0 -26 -28 -60 -62 -34 -35 -71 -76 -81 -92 -11 -15
-26 -34 -32 -41 -7 -8 -13 -18 -13 -23 0 -6 -4 -12 -8 -14 -10 -4 -67 -92
-107 -165 -15 -29 -32 -50 -38 -46 -5 3 -29 47 -53 98 -46 98 -58 112 -89 110
-11 -1 -30 -2 -42 -3 -13 -1 -23 -7 -23 -13 0 -6 17 -9 43 -7 l42 3 64 -129
63 -128 57 106 c71 135 153 246 262 356 l87 86 -39 54 c-37 51 -38 55 -21 73
9 10 52 41 94 69 70 45 86 58 75 58 -2 0 -30 -17 -63 -39z"/>
<path d="M1406 787 c3 -10 9 -15 12 -12 3 3 0 11 -7 18 -10 9 -11 8 -5 -6z"/>
<path d="M1410 749 c0 -6 -9 -9 -20 -6 -11 3 -18 2 -15 -3 3 -4 14 -10 25 -13
15 -4 20 0 20 14 0 10 -2 19 -5 19 -3 0 -5 -5 -5 -11z"/>
<path d="M782 738 c-7 -7 -12 -23 -12 -35 0 -13 -9 -42 -19 -63 -19 -39 -19
-40 1 -65 11 -14 24 -25 30 -25 7 0 7 4 -1 13 -6 8 -8 17 -4 20 3 4 -1 7 -10
7 -9 0 -17 5 -17 10 0 6 4 10 9 10 10 0 37 97 32 118 -2 10 2 10 18 0 12 -7
21 -19 21 -26 0 -7 -4 -11 -10 -7 -10 6 -26 -51 -29 -99 -1 -27 0 -28 16 -14
10 9 28 21 40 27 22 11 22 11 5 -19 -9 -16 -20 -30 -24 -30 -5 0 -8 -6 -8 -13
0 -19 35 -49 53 -45 8 2 23 -7 33 -19 27 -31 81 -35 108 -7 14 13 16 14 16 0
0 -8 -5 -18 -11 -21 -7 -5 -5 -13 6 -25 20 -23 55 -32 59 -17 21 76 30 96 40
88 14 -12 46 10 46 31 0 15 -106 68 -136 68 -8 0 -14 4 -14 10 0 5 -14 13 -32
18 -31 8 -41 18 -52 55 -8 24 -55 22 -83 -5 -23 -22 -31 -15 -13 12 6 10 3 21
-12 37 -25 26 -30 27 -46 11z m139 -58 c5 0 9 -4 9 -10 0 -5 -7 -7 -16 -3 -10
3 -22 0 -28 -8 -19 -25 -74 -60 -80 -50 -3 4 12 21 34 36 22 15 40 32 40 37 0
6 7 7 16 4 9 -3 20 -6 25 -6z m19 -51 c0 -6 -4 -8 -9 -4 -14 8 -63 -79 -55
-99 3 -9 2 -16 -4 -16 -5 0 -13 7 -16 16 -3 8 -10 12 -16 9 -5 -3 -10 -1 -10
4 0 6 4 11 9 11 12 0 61 76 61 95 0 13 4 14 20 5 11 -6 20 -15 20 -21z m75
-43 c14 -22 15 -28 1 -60 -8 -20 -20 -36 -26 -36 -6 0 -9 -4 -6 -8 2 -4 -8 -9
-24 -10 -23 -2 -32 4 -45 27 -19 38 -19 39 5 79 25 41 71 45 95 8z m89 -27
c59 -23 65 -29 42 -48 -11 -9 -15 -7 -19 10 -3 12 -11 19 -17 17 -16 -5 -50
-97 -39 -104 5 -3 9 -10 9 -16 0 -6 -8 -4 -18 5 -10 10 -22 14 -25 10 -4 -3
-7 -1 -7 5 0 7 3 12 8 12 6 0 42 87 42 104 0 3 -7 6 -16 6 -8 0 -12 -4 -9 -10
3 -5 1 -10 -4 -10 -6 0 -11 9 -11 20 0 24 -4 25 64 -1z m-54 -49 c0 -5 -5 -10
-11 -10 -5 0 -7 5 -4 10 3 6 8 10 11 10 2 0 4 -4 4 -10z"/>
<path d="M944 575 c-8 -13 -12 -30 -8 -36 4 -8 3 -9 -4 -5 -18 11 -15 -19 3
-34 21 -18 39 -7 59 35 14 28 15 39 6 51 -18 21 -37 17 -56 -11z m44 -12 c-2
-9 -11 -17 -21 -19 -18 -2 -18 -2 -1 17 21 23 26 24 22 2z"/>
<path d="M2180 707 c-20 -10 -25 -20 -25 -52 0 -22 4 -49 9 -60 13 -27 11 -71
-3 -89 -16 -19 -65 -14 -90 8 -11 10 -23 32 -26 48 -8 35 13 63 55 73 21 5 26
2 26 -14 0 -23 -11 -28 -21 -11 -5 8 -11 8 -19 1 -7 -6 -16 -8 -19 -4 -4 3 -7
-6 -7 -21 0 -18 4 -25 12 -20 7 5 8 3 4 -5 -10 -16 22 -51 46 -51 22 0 33 23
22 48 -7 15 -8 15 -11 -5 -6 -32 -28 -35 -30 -5 0 15 -6 28 -12 30 -25 8 -9
21 19 16 28 -6 30 -5 30 24 0 16 -6 32 -12 34 -21 8 -79 -16 -92 -37 -6 -11
-20 -21 -31 -23 -11 -1 -28 -3 -38 -4 -10 -1 -27 -13 -39 -26 -19 -19 -20 -26
-10 -43 12 -18 11 -19 -7 -10 -11 6 -23 16 -26 21 -3 6 -19 10 -35 10 -27 0
-31 -4 -42 -47 l-12 -48 -6 35 c-5 32 -8 35 -35 32 -16 -1 -52 -3 -80 -5 -49
-2 -49 -2 -79 -58 -24 -45 -34 -55 -49 -51 -12 3 -23 -1 -29 -12 -15 -27 -28
-18 -28 20 0 28 3 35 15 30 8 -3 21 -8 28 -11 15 -7 39 29 31 49 -6 15 -35 26
-71 26 -26 0 -73 -53 -73 -83 0 -43 12 -65 44 -82 17 -10 41 -15 51 -13 11 2
26 -3 33 -12 11 -13 14 -12 32 9 11 13 20 29 20 37 0 8 4 14 10 14 5 0 12 11
16 25 10 40 23 29 20 -16 -3 -33 -1 -38 9 -27 18 18 8 118 -11 118 -8 0 -14
-7 -14 -17 0 -24 -58 -143 -71 -143 -15 0 -10 13 38 106 40 78 42 81 73 76 19
-3 27 -8 20 -12 -9 -5 -7 -17 8 -46 l20 -39 7 30 c4 17 8 36 11 43 2 7 -4 16
-14 20 -13 5 -11 8 13 12 32 7 54 2 37 -9 -15 -9 6 -102 26 -117 12 -9 9 -11
-16 -11 -17 0 -29 4 -26 9 3 5 2 28 -2 51 l-8 42 -7 -44 c-12 -65 0 -81 56
-70 25 5 55 14 68 21 12 6 39 13 61 14 21 1 42 8 46 14 4 6 9 11 11 10 13 -7
93 28 109 47 10 13 25 23 35 23 25 0 55 19 55 34 0 9 7 12 18 10 9 -3 27 4 40
16 17 16 20 25 12 39 -12 24 -54 37 -46 14 3 -8 6 -17 6 -19 0 -2 9 -4 21 -4
11 0 17 -5 14 -10 -4 -6 -11 -8 -16 -5 -5 4 -12 -1 -15 -9 -3 -9 -11 -16 -16
-16 -6 0 -7 7 -4 16 8 22 -4 65 -17 57 -6 -4 -8 3 -3 21 4 16 2 34 -4 41 -8 9
-4 17 16 30 23 15 26 15 21 2 -8 -21 20 -44 35 -29 6 6 18 8 27 5 14 -4 14 -3
1 6 -8 6 -21 11 -29 11 -8 0 -19 7 -25 15 -9 12 -15 13 -36 2z m-166 -143 c12
-11 13 -20 6 -34 -6 -10 -10 -21 -10 -24 0 -11 61 -36 73 -30 7 4 2 -3 -10
-15 l-23 -22 -28 32 c-31 35 -61 34 -39 -1 6 -11 17 -20 24 -20 14 0 18 -19 6
-21 -5 0 -15 -2 -24 -4 -12 -2 -19 6 -23 27 -3 16 -9 27 -13 25 -5 -3 -9 6
-10 20 0 14 -6 29 -12 33 -17 10 27 45 61 49 4 1 14 -6 22 -15z m-141 -41
c-19 -7 7 -41 27 -36 10 3 21 0 25 -6 3 -6 2 -10 -3 -9 -10 3 -12 -1 -12 -22
0 -6 11 -16 25 -22 33 -15 32 -30 -1 -22 -21 5 -25 4 -19 -6 5 -9 4 -11 -4 -6
-6 4 -9 10 -7 14 2 4 -2 16 -10 27 -12 16 -14 17 -14 2 0 -20 -11 -22 -28 -5
-9 9 -12 8 -12 -6 0 -11 8 -25 18 -33 14 -12 15 -14 1 -10 -9 3 -22 0 -28 -6
-17 -17 -22 -3 -8 32 10 27 9 33 -3 41 -10 7 -12 12 -4 18 6 4 14 14 17 22 3
9 6 4 6 -11 1 -15 8 -29 16 -33 24 -9 18 22 -9 49 -25 25 -20 33 19 33 11 0
15 -2 8 -5z m-317 -55 c3 -4 0 -8 -5 -8 -6 0 -10 -3 -10 -7 4 -23 -3 -25 -17
-5 -15 22 -52 32 -38 10 5 -7 3 -8 -6 -3 -10 6 -12 4 -7 -8 4 -10 2 -17 -5
-17 -7 0 -8 -12 -4 -32 8 -39 9 -41 45 -43 23 -1 27 2 23 17 -2 10 1 18 7 18
17 0 13 -38 -5 -48 -40 -23 -94 16 -94 68 0 46 26 71 71 68 22 -1 43 -6 45
-10z m251 -60 c-3 -7 -5 -2 -5 12 0 14 2 19 5 13 2 -7 2 -19 0 -25z"/>
<path d="M1955 550 c-3 -5 -1 -19 5 -30 9 -17 14 -19 26 -9 21 17 18 49 -5 49
-11 0 -23 -4 -26 -10z"/>
<path d="M614 594 c163 -154 391 -268 636 -321 65 -14 129 -18 270 -18 199 0
281 12 430 61 167 56 342 156 463 264 62 56 74 56 28 0 l-29 -34 64 -59 c117
-108 239 -272 308 -417 l34 -71 31 54 c17 30 46 88 65 129 32 70 36 75 60 71
18 -4 26 -1 26 9 0 18 -40 21 -62 5 -9 -7 -32 -48 -52 -91 -20 -43 -42 -87
-50 -97 -13 -19 -15 -17 -42 28 -16 26 -34 57 -41 68 -7 11 -16 27 -20 35 -16
33 -81 121 -138 185 -60 69 -72 81 -110 110 -18 14 -17 14 17 1 82 -32 136
-61 132 -68 -3 -5 -2 -8 3 -7 21 4 34 -2 27 -13 -5 -8 -2 -9 9 -5 10 3 17 3
17 -1 0 -5 16 -14 35 -21 34 -12 37 -11 71 18 19 17 31 31 26 31 -5 0 -19 -11
-31 -24 -12 -13 -28 -23 -34 -22 -7 1 -42 18 -79 39 -36 20 -104 53 -149 73
-46 19 -85 37 -87 38 -1 2 8 16 21 32 77 94 -8 77 -112 -22 -18 -17 -45 -38
-60 -45 -14 -8 -34 -21 -43 -29 -20 -19 -175 -97 -243 -123 -154 -59 -273 -82
-445 -86 -173 -3 -360 24 -496 73 -81 29 -266 125 -302 157 -10 8 -24 18 -32
21 -8 4 -50 36 -92 72 -43 36 -81 66 -85 66 -5 -1 23 -30 61 -66z"/>
<path d="M2190 640 c0 -13 7 -20 20 -20 11 0 20 3 20 8 0 4 -9 13 -20 20 -18
11 -20 10 -20 -8z"/>
<path d="M2250 654 c0 -13 36 -33 60 -34 19 0 22 -2 10 -9 -8 -6 -17 -8 -21
-5 -4 2 -11 -1 -14 -6 -5 -7 -12 -5 -20 7 -7 10 -17 14 -21 10 -4 -4 2 -17 13
-28 21 -21 21 -21 52 -3 17 10 30 23 28 28 -7 21 -87 57 -87 40z"/>
<path d="M0 643 c0 -3 10 -17 21 -29 l21 -23 -22 -31 c-29 -40 -20 -49 15 -14
l27 27 41 -39 42 -39 -41 45 c-23 25 -47 55 -53 67 -11 22 -51 50 -51 36z"/>
<path d="M2990 610 c0 -6 -35 -45 -77 -87 l-78 -75 74 66 c43 37 78 61 81 55
4 -5 7 4 7 21 0 16 -2 30 -4 30 -1 0 -3 -5 -3 -10z"/>
<path d="M1190 530 c0 -6 -11 -20 -25 -32 -14 -12 -25 -27 -25 -33 0 -6 -9
-19 -21 -28 -11 -10 -19 -23 -16 -30 6 -19 57 -41 69 -29 7 7 16 4 29 -9 22
-22 57 -25 64 -6 7 17 -9 70 -22 74 -12 4 -5 -46 10 -64 7 -9 5 -13 -7 -13 -9
0 -16 5 -16 10 0 6 -8 10 -17 10 -15 0 -15 2 -4 9 9 6 11 16 7 27 -6 15 -9 16
-16 4 -7 -12 -11 -10 -18 9 -12 32 -26 10 -17 -26 6 -24 5 -25 -11 -12 -9 8
-19 13 -21 12 -1 -2 -7 -3 -13 -3 -18 0 -11 15 13 25 12 6 23 20 25 33 2 12 9
22 17 22 7 0 17 11 22 24 7 20 11 22 33 14 15 -6 20 -12 13 -15 -20 -7 -15
-37 8 -52 20 -12 21 -11 14 6 -4 10 -7 28 -6 40 1 23 -24 43 -53 43 -9 0 -16
-5 -16 -10z"/>
<path d="M2670 503 c1 -14 79 -97 85 -91 8 8 -57 92 -73 96 -7 1 -12 -1 -12
-5z"/>
<path d="M1191 476 c-11 -13 -11 -20 -3 -28 15 -15 24 -5 20 23 -3 21 -4 21
-17 5z"/>
<path d="M215 433 c27 -29 56 -53 65 -52 13 0 13 1 0 6 -8 3 -37 26 -65 52
l-50 46 50 -52z"/>
<path d="M1319 439 c-22 -14 3 -43 40 -47 21 -2 33 2 37 13 4 9 4 18 2 21 -12
12 -67 21 -79 13z m61 -24 c12 -14 10 -15 -15 -11 -40 7 -56 26 -23 26 14 0
31 -7 38 -15z"/>
<path d="M1676 410 c3 -19 12 -40 20 -46 20 -16 17 -27 -6 -21 -11 3 -23 1
-26 -4 -7 -12 37 -11 56 1 10 7 12 12 4 18 -6 4 -21 25 -33 47 l-22 40 7 -35z"/>
</g>
</svg>
